<?xml version="1.0" encoding="UTF-8" standalone="no"?>
<!-- Created with Inkscape (http://www.inkscape.org/) -->

<svg
   width="760.67725mm"
   height="218.65372mm"
   viewBox="0 0 760.67725 218.65372"
   version="1.1"
   id="svg1"
   xmlns="http://www.w3.org/2000/svg"
   xmlns:svg="http://www.w3.org/2000/svg">
  <defs
     id="defs1" />
  <g
     id="layer1"
     transform="translate(1016.7938,-53.974831)">
    <g
       id="g1">
      <rect
         style="fill:#ffffff;fill-opacity:1;stroke:none;stroke-width:0.0607956;stroke-linecap:round;stroke-linejoin:round;stroke-opacity:1;paint-order:markers fill stroke"
         id="rect1807"
         width="253.55901"
         height="218.65372"
         x="-1016.7938"
         y="53.974831" />
      <g
         id="g2061"
         transform="matrix(0.9604,0,0,0.9604,-5674.2606,-4636.8097)">
        <g
           id="g1816"
           transform="matrix(0.50090686,0,0,0.50090686,3521.6101,4441.1148)"
           style="stroke:none">
          <path
             d="m 2804.9771,1098.034 v -30.705 h -7.0366 v 36.6756 h 22.549 v -5.9706 z"
             id="path1807"
             style="font-weight:bold;font-size:16.3915px;line-height:0.9;font-family:Vegur;-inkscape-font-specification:'Vegur Bold';text-align:center;letter-spacing:-0.439064px;text-anchor:middle;fill:#18a303;stroke:none;stroke-width:0.907529;stroke-linecap:round;stroke-linejoin:round;paint-order:markers fill stroke" />
          <path
             d="m 2826.3647,1068.1821 c -2.2389,0 -4.0514,1.6524 -4.0514,3.7315 0,2.079 1.8125,3.7314 4.0514,3.7314 2.2389,0 4.0513,-1.6524 4.0513,-3.7314 0,-2.0791 -1.8124,-3.7315 -4.0513,-3.7315 z m -3.5183,35.8225 h 7.0366 v -25.6941 h -7.0366 z"
             id="path1808"
             style="font-weight:bold;font-size:16.3915px;line-height:0.9;font-family:Vegur;-inkscape-font-specification:'Vegur Bold';text-align:center;letter-spacing:-0.439064px;text-anchor:middle;fill:#18a303;stroke:none;stroke-width:0.907529;stroke-linecap:round;stroke-linejoin:round;paint-order:markers fill stroke" />
          <path
             d="m 2841.462,1064.8236 h -7.0365 v 39.181 h 5.9171 l 0.533,-4.3712 c 1.1195,3.0918 4.158,4.9042 7.7296,4.9042 6.77,0 11.621,-5.1709 11.621,-13.7532 0,-7.3564 -4.0514,-13.0069 -10.6615,-13.0069 -3.5182,0 -6.3968,1.3857 -8.1027,4.4245 z m 0,25.4277 c 0,-4.1581 2.5055,-6.6102 5.3841,-6.6102 4.3178,0 6.1303,3.4118 6.1303,7.6763 0,5.1709 -2.4521,7.8363 -5.8105,7.8363 -2.8253,0 -5.7039,-2.5054 -5.7039,-6.3969 z"
             id="path1809"
             style="font-weight:bold;font-size:16.3915px;line-height:0.9;font-family:Vegur;-inkscape-font-specification:'Vegur Bold';text-align:center;letter-spacing:-0.439064px;text-anchor:middle;fill:#18a303;stroke:none;stroke-width:0.907529;stroke-linecap:round;stroke-linejoin:round;paint-order:markers fill stroke" />
          <path
             d="m 2869.2998,1078.3105 h -5.9171 v 25.6941 h 7.0366 v -12.5805 c 0,-4.3179 1.6525,-7.463 4.9576,-7.463 1.2793,0 2.0789,0.1073 2.9319,0.4797 l 0.2666,-6.237 c -0.5864,-0.2667 -1.6525,-0.4263 -2.5587,-0.4263 -2.4522,0 -5.2774,1.919 -6.1837,4.8508 z"
             id="path1810"
             style="font-weight:bold;font-size:16.3915px;line-height:0.9;font-family:Vegur;-inkscape-font-specification:'Vegur Bold';text-align:center;letter-spacing:-0.439064px;text-anchor:middle;fill:#18a303;stroke:none;stroke-width:0.907529;stroke-linecap:round;stroke-linejoin:round;paint-order:markers fill stroke" />
          <path
             d="m 2899.9628,1097.341 c -1.9191,1.013 -4.2112,1.5994 -7.0365,1.5994 -3.8382,0 -6.237,-1.8124 -6.6102,-5.2242 h 15.6191 c 0.16,-0.8528 0.2667,-2.0788 0.2667,-2.9852 0,-7.0366 -3.1985,-12.9535 -10.5549,-12.9535 -6.8766,0 -12.0474,5.4372 -12.0474,14.1796 0,8.4227 4.9042,12.5805 11.9408,12.5805 3.9447,0 6.8766,-0.7463 8.9023,-1.8657 z m -13.5933,-8.6891 c 0.4264,-3.5181 2.3988,-5.4372 4.9575,-5.4372 3.2518,0 4.4779,2.4521 4.4779,5.4372 z"
             id="path1811"
             style="font-weight:bold;font-size:16.3915px;line-height:0.9;font-family:Vegur;-inkscape-font-specification:'Vegur Bold';text-align:center;letter-spacing:-0.439064px;text-anchor:middle;fill:#18a303;stroke:none;stroke-width:0.907529;stroke-linecap:round;stroke-linejoin:round;paint-order:markers fill stroke" />
          <path
             d="m 2920.9239,1066.796 c -10.0218,0 -16.9517,7.303 -16.9517,18.8708 0,11.5678 6.9299,18.8708 16.9517,18.8708 10.0218,0 16.9517,-7.303 16.9517,-18.8708 0,-11.5678 -6.9299,-18.8708 -16.9517,-18.8708 z m 0,3.8382 c 6.4502,0 12.0475,4.9042 12.0475,15.0326 0,10.1284 -5.5973,15.0327 -12.0475,15.0327 -6.4502,0 -12.0474,-4.9043 -12.0474,-15.0327 0,-10.1284 5.5972,-15.0326 12.0474,-15.0326 z"
             style="font-weight:normal;font-size:16.3915px;line-height:0.9;font-family:Vegur;-inkscape-font-specification:Vegur;text-align:center;letter-spacing:-0.439064px;text-anchor:middle;fill:#18a303;stroke:none;stroke-width:0.907529;stroke-linecap:round;stroke-linejoin:round;paint-order:markers fill stroke"
             id="path1812" />
          <path
             d="m 2943.3243,1078.7368 h -3.5716 v 3.4119 h 3.5716 v 21.8559 h 4.3712 v -21.8559 h 6.4502 v -3.4119 h -6.4502 v -2.9851 c 0,-5.4372 2.8786,-7.8363 6.0237,-7.8363 1.4926,0 2.3988,0.2146 3.2517,0.5333 l 0.2667,-3.6251 c -0.8529,-0.3187 -2.1323,-0.533 -3.5716,-0.533 -6.3435,0 -10.3416,4.2111 -10.3416,12.0475 z"
             style="font-weight:normal;font-size:16.3915px;line-height:0.9;font-family:Vegur;-inkscape-font-specification:Vegur;text-align:center;letter-spacing:-0.439064px;text-anchor:middle;fill:#18a303;stroke:none;stroke-width:0.907529;stroke-linecap:round;stroke-linejoin:round;paint-order:markers fill stroke"
             id="path1813" />
          <path
             d="m 2976.5461,1078.7368 h -13.8599 v -1.3327 c 0,-5.5439 2.3455,-9.4887 7.3031,-9.4887 2.1323,0 3.998,0.48 5.4906,1.4927 l 0.4265,-3.7315 c -1.0662,-0.7463 -3.2518,-1.386 -5.4907,-1.386 -7.1964,0 -12.1007,4.3178 -12.1007,13.6999 v 0.7463 h -3.5716 v 3.4119 h 3.5716 v 21.8559 h 4.3712 v -21.8559 h 9.4887 v 21.8559 h 4.3712 z"
             style="font-weight:normal;font-size:16.3915px;line-height:0.9;font-family:Vegur;-inkscape-font-specification:Vegur;text-align:center;letter-spacing:-0.439064px;text-anchor:middle;fill:#18a303;stroke:none;stroke-width:0.907529;stroke-linecap:round;stroke-linejoin:round;paint-order:markers fill stroke"
             id="path1814" />
          <path
             d="m 2998.1583,1099.7401 c -1.5993,0.7993 -3.5716,1.2794 -5.3841,1.2794 -5.384,0 -8.5291,-3.4118 -8.5291,-9.7555 0,-6.5566 3.7315,-9.6484 8.4758,-9.6484 2.2389,0 4.158,0.5331 5.7039,1.3858 l 0.3732,-3.8382 c -1.4393,-0.6927 -3.6783,-1.1727 -6.237,-1.1727 -6.8766,0 -13.1136,4.6912 -13.1136,13.5936 0,8.849 5.4374,12.9535 12.3673,12.9535 2.6121,0 4.9576,-0.533 6.7167,-1.226 z"
             style="font-weight:normal;font-size:16.3915px;line-height:0.9;font-family:Vegur;-inkscape-font-specification:Vegur;text-align:center;letter-spacing:-0.439064px;text-anchor:middle;fill:#18a303;stroke:none;stroke-width:0.907529;stroke-linecap:round;stroke-linejoin:round;paint-order:markers fill stroke"
             id="path1815" />
          <path
             d="m 3020.0256,1099.1537 c -1.8125,1.1194 -4.2113,1.8658 -6.4502,1.8658 -5.1175,0 -7.7828,-2.5055 -8.0494,-8.2627 h 15.9389 c 0.16,-0.8531 0.2133,-1.3861 0.2133,-2.1858 0,-6.9299 -2.7186,-12.5805 -9.3287,-12.5805 -6.8767,0 -11.4078,5.4375 -11.4078,13.9666 0,8.316 4.5311,12.5805 11.5677,12.5805 2.9852,0 5.8105,-0.693 7.7295,-1.7591 z m -14.393,-9.9687 c 0.3732,-4.4776 2.7187,-7.463 6.237,-7.463 3.8914,0 5.384,3.3051 5.384,7.463 z"
             style="font-weight:normal;font-size:16.3915px;line-height:0.9;font-family:Vegur;-inkscape-font-specification:Vegur;text-align:center;letter-spacing:-0.439064px;text-anchor:middle;fill:#18a303;stroke:none;stroke-width:0.907529;stroke-linecap:round;stroke-linejoin:round;paint-order:markers fill stroke"
             id="path1816" />
        </g>
        <g
           id="g1817"
           transform="matrix(0.34429708,0,0,0.34429708,3128.0256,4331.5455)"
           style="stroke:none">
          <path
             id="path1817"
             style="fill:#18a303;fill-opacity:1;stroke:none;stroke-width:3.51184;stroke-linecap:round;stroke-linejoin:round;stroke-dasharray:none;stroke-opacity:1;paint-order:markers fill stroke"
             d="m 5557.6159,1937.4604 a 33.741474,33.741474 0 0 0 -33.7416,33.7415 33.741474,33.741474 0 0 0 33.7416,33.7416 33.741474,33.741474 0 0 0 33.7415,-33.7416 33.741474,33.741474 0 0 0 -33.7415,-33.7415 z m -19.1872,25.5323 c 3.7119,0 5.3536,2.118 5.3536,4.545 0,2.1891 -1.3326,4.0686 -3.5931,6.1863 l -2.855,2.6889 h 6.2579 v 2.6648 h -10.0178 v -2.4505 l 4.212,-4.2831 c 1.7132,-1.7608 2.6172,-3.1172 2.6172,-4.3783 0,-1.5704 -0.8802,-2.3083 -2.5696,-2.3083 -1.0232,0 -2.213,0.4525 -3.2837,1.4281 l -0.1427,-2.8316 c 1.2135,-0.8566 2.4984,-1.2613 4.0212,-1.2613 z m 12.6644,0 c 3.0695,0 5.5439,2.0703 5.5439,8.2092 0,6.139 -2.4744,8.2092 -5.5439,8.2092 -3.0695,0 -5.5439,-2.0702 -5.5439,-8.2092 0,-6.1389 2.4744,-8.2092 5.5439,-8.2092 z m 11.9985,0 c 3.7119,0 5.3536,2.118 5.3536,4.545 0,2.1891 -1.3326,4.0686 -3.5931,6.1863 l -2.8551,2.6889 h 6.258 v 2.6648 h -10.0178 v -2.4505 l 4.212,-4.2831 c 1.7132,-1.7608 2.6172,-3.1172 2.6172,-4.3783 0,-1.5704 -0.8802,-2.3083 -2.5696,-2.3083 -1.0232,0 -2.213,0.4525 -3.2837,1.4281 l -0.1427,-2.8316 c 1.2135,-0.8566 2.4984,-1.2613 4.0212,-1.2613 z m 12.2123,0.333 h 4.2355 v 9.494 h 2.1175 v 2.6653 h -2.1175 v 3.5691 h -3.141 v -3.5691 h -6.2814 v -2.4745 z m -24.2108,2.3318 c -1.5466,0 -2.1651,2.0467 -2.1651,5.5444 0,3.4978 0.6185,5.5439 2.1651,5.5439 1.5467,0 2.1651,-2.0461 2.1651,-5.5439 0,-3.4977 -0.6184,-5.5444 -2.1651,-5.5444 z m 25.4956,0.4286 -3.2361,6.7336 h 3.0934 v -3.188 c 0,-1.3563 0.024,-2.3558 0.1427,-3.5456 z" />
        </g>
        <path
           style="font-weight:bold;font-size:85.7176px;line-height:1.3;font-family:Vegur;-inkscape-font-specification:Vegur;letter-spacing:-0.321442px;white-space:pre;fill:#18a303;stroke:none;stroke-width:0.617675;stroke-linecap:round;stroke-linejoin:round;paint-order:markers fill stroke"
           d="m 4921.6215,5013.5664 1.7364,5.7694 h 4.0889 l -6.5535,-19.2684 h -4.425 l -6.5534,19.2684 h 3.9769 l 1.7363,-5.7694 z m -0.9522,-3.1366 h -4.089 l 2.0445,-6.8056 z m 7.7647,8.4579 c 1.0082,0.4761 2.3525,0.7281 3.5288,0.7281 3.1367,0 5.6573,-1.6804 5.6573,-4.425 0,-2.0164 -1.0083,-3.3047 -3.6408,-3.9209 -0.9243,-0.224 -1.5124,-0.6721 -1.5124,-1.4283 0,-0.8402 0.8122,-1.3163 1.9324,-1.3163 1.0083,0 1.9045,0.2241 2.7446,0.6722 l 0.2241,-3.0247 c -0.7842,-0.3361 -1.8484,-0.5882 -3.3887,-0.5882 -2.7447,0 -5.2653,1.5124 -5.2653,4.453 0,2.1005 1.0363,3.3328 3.4168,3.9489 1.1483,0.3081 1.7644,0.7002 1.7644,1.4284 0,0.7561 -0.7281,1.2323 -1.9324,1.2323 -1.0082,0 -2.0725,-0.1681 -3.2488,-0.7002 z m 13.282,-18.3722 c -1.1762,0 -2.1285,0.8682 -2.1285,1.9605 0,1.0922 0.9523,1.9604 2.1285,1.9604 1.1763,0 2.1285,-0.8682 2.1285,-1.9604 0,-1.0923 -0.9522,-1.9605 -2.1285,-1.9605 z m -1.8484,18.8203 h 3.6968 v -13.4991 h -3.6968 z m 7.2326,-9.5502 c 1.0922,-0.7002 2.6606,-1.0362 3.7528,-1.0362 1.7644,0 2.5206,0.8401 2.5206,2.1565 v 0.308 c -0.3361,-0.028 -0.7562,-0.056 -1.2883,-0.056 -3.5288,0 -6.1334,1.5964 -6.1334,4.481 0,2.4926 1.6244,3.9769 4.061,3.9769 1.7924,0 2.8846,-0.5321 3.6688,-1.9884 l 0.2801,1.7084 h 3.1086 v -8.71 c 0,-3.0807 -1.6243,-5.0692 -5.6572,-5.0692 -1.5684,0 -3.3888,0.3921 -4.537,1.0923 z m 6.2734,4.453 c 0,1.5683 -0.9242,2.7166 -2.0164,2.7166 -1.0083,0 -1.6804,-0.6441 -1.6804,-1.5683 0,-1.2043 1.0362,-1.9605 2.6046,-1.9605 0.364,0 0.7561,0.028 1.0922,0.056 z m 26.256,1.1203 c -1.6524,0.8401 -3.1087,1.2322 -4.8451,1.2322 -3.7248,0 -6.2174,-2.6326 -6.2174,-7.1136 0,-4.369 2.9126,-6.6655 6.3014,-6.6655 2.0164,0 3.6688,0.4761 4.9571,1.1763 l 0.3641,-3.1927 c -1.1483,-0.6722 -2.8847,-1.1203 -5.3212,-1.1203 -5.4892,0 -10.2783,3.5008 -10.2783,10.1103 0,6.5255 3.9769,9.9422 9.6342,9.9422 2.0444,0 4.1169,-0.364 5.6852,-1.2043 z m 21.9496,-9.5222 h -3.1087 v 13.4991 h 3.6968 v -6.9456 c 0,-2.1285 0.8962,-3.5288 2.4366,-3.5288 1.5683,0 2.3525,1.2042 2.3525,2.9406 v 7.5338 h 3.6968 v -9.0181 c 0,-2.7446 -1.7924,-4.7611 -4.8171,-4.7611 -1.8204,0 -3.3607,0.8963 -3.9488,2.8287 z m 12.6658,0.112 h -1.8764 v 2.9127 h 1.8764 v 10.4744 h 3.6968 v -10.4744 h 3.6689 v -2.9127 h -3.6689 v -1.0922 c 0,-2.0165 1.1483,-3.3048 2.9687,-3.3048 0.7842,0 1.4843,0.1121 2.0164,0.3361 l 0.2521,-3.0527 c -0.5601,-0.224 -1.4563,-0.3641 -2.2965,-0.3641 -3.7248,0 -6.6375,2.2125 -6.6375,6.6936 z m 11.6856,9.4102 c -1.1762,0 -2.1284,0.9522 -2.1284,2.1284 0,1.1763 0.9522,2.1285 2.1284,2.1285 1.1763,0 2.1285,-0.9522 2.1285,-2.1285 0,-1.1762 -0.9522,-2.1284 -2.1285,-2.1284 z"
           id="path1818"
           aria-label="Asia Conf." />
        <g
           id="g1821"
           transform="matrix(0.16864017,0,0,0.16864017,3856.2318,4677.8542)"
           style="stroke:none">
          <g
             id="g1820"
             style="stroke:none">
            <path
               id="path1819"
               style="fill:#18a303;fill-opacity:1;stroke:none;stroke-width:0.139492;stroke-linecap:round;stroke-linejoin:round;stroke-dasharray:none;paint-order:markers fill stroke"
               d="m 6715.3041,1935.2834 h -0.01 c -1.2202,-0.051 -2.609,1.2423 -3.8249,2.9327 -0.4547,-0.9997 -1.2517,-1.6854 -2.4808,-1.8382 -1.1966,-0.1488 -2.3406,1.1024 -3.276,2.8263 -3.5143,-0.7591 -6.996,-0.3077 -7.4623,2.5028 -2.6826,-0.1197 -4.9095,0.703 -5.1417,3.0665 v 0.2243 c -3.0643,-0.062 -5.6724,0.9128 -5.6894,3.5332 0,0.4144 0.1628,0.8024 0.4488,1.164 -2.1253,0.3407 -3.6876,1.3848 -3.7006,3.4119 0,0.3619 0.1209,0.7042 0.3423,1.026 -0.9294,-0.3722 -1.9044,-0.3325 -2.8663,0.2971 -0.8978,0.5878 -1.0444,1.9954 -0.7837,3.6511 -2.0119,0.3765 -3.4685,1.4167 -3.4815,3.373 -0.01,0.8095 0.616,1.5216 1.5738,2.1226 -2.2507,1.0574 -3.7387,2.6917 -2.8853,4.6981 0.2623,0.6165 0.9324,0.9761 1.8224,1.1482 h 72.4233 c -0.01,-0.01 -0.01,-0.01 -0.01,-0.017 0.86,-0.1765 1.507,-0.532 1.7633,-1.1345 0.8535,-2.0064 -0.6343,-3.6408 -2.8852,-4.6982 0.9579,-0.6011 1.5838,-1.3131 1.5738,-2.1226 -0.013,-1.9563 -1.4684,-2.9975 -3.4805,-3.374 0.2609,-1.6555 0.1132,-3.0623 -0.7847,-3.6501 -0.962,-0.6296 -1.9369,-0.6693 -2.8663,-0.297 0.2214,-0.3219 0.3423,-0.6641 0.3423,-1.026 -0.013,-2.027 -1.5754,-3.0712 -3.7006,-3.412 0.2859,-0.3616 0.4488,-0.7496 0.4488,-1.164 -0.017,-2.6203 -2.6242,-3.5951 -5.6884,-3.5331 0.01,-0.075 0.01,-0.1494 0,-0.2244 -0.2326,-2.3676 -2.4676,-3.1887 -5.1564,-3.0654 -0.026,-1.3227 -0.3551,-2.376 -1.1577,-2.7946 -1.1342,-0.5916 -2.2108,-0.4531 -3.177,0.1601 -0.017,-0.118 -0.044,-0.2339 -0.087,-0.3466 -1.0433,-2.7377 -4.3983,-2.4193 -7.5728,-0.8764 -0.2261,-1.1841 -0.8949,-2.0976 -2.1658,-2.4955 -0.1336,-0.043 -0.2701,-0.062 -0.4087,-0.072 z m 2.921,6.2267 c 0.6248,0.015 1.1118,0.2875 1.4579,0.8248 0.869,2.4231 -5.7135,8.3983 -7.6255,5.2133 -0.9218,-1.5358 2.9457,-4.9841 4.4611,-5.6062 0.6513,-0.2987 1.2206,-0.4433 1.7065,-0.4319 z m -12.5797,5.2154 c 0.6248,0.015 1.1118,0.2874 1.4579,0.8248 0.8688,2.4229 -5.7137,8.3981 -7.6255,5.2132 -0.922,-1.5359 2.9455,-4.9842 4.4611,-5.6061 0.6513,-0.2987 1.2206,-0.4434 1.7065,-0.4319 z m 20.3359,1.4747 c 0.7298,0 1.2693,0.3108 1.6128,0.9323 0.7032,2.4761 -6.2681,7.9925 -7.9606,4.6855 -0.816,-1.5945 3.2759,-4.7741 4.8299,-5.2923 0.5744,-0.2177 1.0803,-0.3267 1.5179,-0.3255 z" />
            <path
               id="path1820"
               style="fill:#18a303;fill-opacity:1;stroke:none;stroke-width:0.139492;stroke-linecap:round;stroke-linejoin:round;stroke-dasharray:none;stroke-opacity:1;paint-order:markers fill stroke"
               d="m 6667.1569,1972.867 c -0.025,0.5441 -0.042,1.0882 -0.042,1.6328 0.019,17.4145 10.4951,33.2145 26.8285,40.6728 h 40.55 c 16.3334,-7.4583 26.8103,-23.2583 26.8285,-40.6728 -0.03,-0.545 -0.071,-1.0891 -0.1218,-1.6328 z m 26.4921,45.5037 v 6.5511 h 41.1377 v -6.5511 z" />
          </g>
        </g>
      </g>
      <rect
         style="fill:#18a303;fill-opacity:1;stroke:none;stroke-width:0.0607956;stroke-linecap:round;stroke-linejoin:round;stroke-opacity:1;paint-order:markers fill stroke"
         id="rect1842"
         width="253.55901"
         height="218.65372"
         x="509.67557"
         y="53.974831"
         transform="scale(-1,1)" />
      <rect
         style="fill:#333333;fill-opacity:1;stroke:none;stroke-width:0.0607956;stroke-linecap:round;stroke-linejoin:round;stroke-opacity:1;paint-order:markers fill stroke"
         id="rect1843"
         width="253.55901"
         height="218.65372"
         x="-509.67557"
         y="53.974831" />
      <g
         id="g2062"
         transform="matrix(0.9604,0,0,0.9604,-5664.2197,-4636.8097)">
        <g
           id="g1852"
           transform="matrix(0.50090686,0,0,0.50090686,3775.1693,4441.1148)"
           style="fill:#ffffff;stroke:none">
          <path
             d="m 2804.9771,1098.034 v -30.705 h -7.0366 v 36.6756 h 22.549 v -5.9706 z"
             id="path1843"
             style="font-weight:bold;font-size:16.3915px;line-height:0.9;font-family:Vegur;-inkscape-font-specification:'Vegur Bold';text-align:center;letter-spacing:-0.439064px;text-anchor:middle;fill:#ffffff;stroke:none;stroke-width:0.907529;stroke-linecap:round;stroke-linejoin:round;paint-order:markers fill stroke" />
          <path
             d="m 2826.3647,1068.1821 c -2.2389,0 -4.0514,1.6524 -4.0514,3.7315 0,2.079 1.8125,3.7314 4.0514,3.7314 2.2389,0 4.0513,-1.6524 4.0513,-3.7314 0,-2.0791 -1.8124,-3.7315 -4.0513,-3.7315 z m -3.5183,35.8225 h 7.0366 v -25.6941 h -7.0366 z"
             id="path1844"
             style="font-weight:bold;font-size:16.3915px;line-height:0.9;font-family:Vegur;-inkscape-font-specification:'Vegur Bold';text-align:center;letter-spacing:-0.439064px;text-anchor:middle;fill:#ffffff;stroke:none;stroke-width:0.907529;stroke-linecap:round;stroke-linejoin:round;paint-order:markers fill stroke" />
          <path
             d="m 2841.462,1064.8236 h -7.0365 v 39.181 h 5.9171 l 0.533,-4.3712 c 1.1195,3.0918 4.158,4.9042 7.7296,4.9042 6.77,0 11.621,-5.1709 11.621,-13.7532 0,-7.3564 -4.0514,-13.0069 -10.6615,-13.0069 -3.5182,0 -6.3968,1.3857 -8.1027,4.4245 z m 0,25.4277 c 0,-4.1581 2.5055,-6.6102 5.3841,-6.6102 4.3178,0 6.1303,3.4118 6.1303,7.6763 0,5.1709 -2.4521,7.8363 -5.8105,7.8363 -2.8253,0 -5.7039,-2.5054 -5.7039,-6.3969 z"
             id="path1845"
             style="font-weight:bold;font-size:16.3915px;line-height:0.9;font-family:Vegur;-inkscape-font-specification:'Vegur Bold';text-align:center;letter-spacing:-0.439064px;text-anchor:middle;fill:#ffffff;stroke:none;stroke-width:0.907529;stroke-linecap:round;stroke-linejoin:round;paint-order:markers fill stroke" />
          <path
             d="m 2869.2998,1078.3105 h -5.9171 v 25.6941 h 7.0366 v -12.5805 c 0,-4.3179 1.6525,-7.463 4.9576,-7.463 1.2793,0 2.0789,0.1073 2.9319,0.4797 l 0.2666,-6.237 c -0.5864,-0.2667 -1.6525,-0.4263 -2.5587,-0.4263 -2.4522,0 -5.2774,1.919 -6.1837,4.8508 z"
             id="path1846"
             style="font-weight:bold;font-size:16.3915px;line-height:0.9;font-family:Vegur;-inkscape-font-specification:'Vegur Bold';text-align:center;letter-spacing:-0.439064px;text-anchor:middle;fill:#ffffff;stroke:none;stroke-width:0.907529;stroke-linecap:round;stroke-linejoin:round;paint-order:markers fill stroke" />
          <path
             d="m 2899.9628,1097.341 c -1.9191,1.013 -4.2112,1.5994 -7.0365,1.5994 -3.8382,0 -6.237,-1.8124 -6.6102,-5.2242 h 15.6191 c 0.16,-0.8528 0.2667,-2.0788 0.2667,-2.9852 0,-7.0366 -3.1985,-12.9535 -10.5549,-12.9535 -6.8766,0 -12.0474,5.4372 -12.0474,14.1796 0,8.4227 4.9042,12.5805 11.9408,12.5805 3.9447,0 6.8766,-0.7463 8.9023,-1.8657 z m -13.5933,-8.6891 c 0.4264,-3.5181 2.3988,-5.4372 4.9575,-5.4372 3.2518,0 4.4779,2.4521 4.4779,5.4372 z"
             id="path1847"
             style="font-weight:bold;font-size:16.3915px;line-height:0.9;font-family:Vegur;-inkscape-font-specification:'Vegur Bold';text-align:center;letter-spacing:-0.439064px;text-anchor:middle;fill:#ffffff;stroke:none;stroke-width:0.907529;stroke-linecap:round;stroke-linejoin:round;paint-order:markers fill stroke" />
          <path
             d="m 2920.9239,1066.796 c -10.0218,0 -16.9517,7.303 -16.9517,18.8708 0,11.5678 6.9299,18.8708 16.9517,18.8708 10.0218,0 16.9517,-7.303 16.9517,-18.8708 0,-11.5678 -6.9299,-18.8708 -16.9517,-18.8708 z m 0,3.8382 c 6.4502,0 12.0475,4.9042 12.0475,15.0326 0,10.1284 -5.5973,15.0327 -12.0475,15.0327 -6.4502,0 -12.0474,-4.9043 -12.0474,-15.0327 0,-10.1284 5.5972,-15.0326 12.0474,-15.0326 z"
             style="font-weight:normal;font-size:16.3915px;line-height:0.9;font-family:Vegur;-inkscape-font-specification:Vegur;text-align:center;letter-spacing:-0.439064px;text-anchor:middle;fill:#ffffff;stroke:none;stroke-width:0.907529;stroke-linecap:round;stroke-linejoin:round;paint-order:markers fill stroke"
             id="path1848" />
          <path
             d="m 2943.3243,1078.7368 h -3.5716 v 3.4119 h 3.5716 v 21.8559 h 4.3712 v -21.8559 h 6.4502 v -3.4119 h -6.4502 v -2.9851 c 0,-5.4372 2.8786,-7.8363 6.0237,-7.8363 1.4926,0 2.3988,0.2146 3.2517,0.5333 l 0.2667,-3.6251 c -0.8529,-0.3187 -2.1323,-0.533 -3.5716,-0.533 -6.3435,0 -10.3416,4.2111 -10.3416,12.0475 z"
             style="font-weight:normal;font-size:16.3915px;line-height:0.9;font-family:Vegur;-inkscape-font-specification:Vegur;text-align:center;letter-spacing:-0.439064px;text-anchor:middle;fill:#ffffff;stroke:none;stroke-width:0.907529;stroke-linecap:round;stroke-linejoin:round;paint-order:markers fill stroke"
             id="path1849" />
          <path
             d="m 2976.5461,1078.7368 h -13.8599 v -1.3327 c 0,-5.5439 2.3455,-9.4887 7.3031,-9.4887 2.1323,0 3.998,0.48 5.4906,1.4927 l 0.4265,-3.7315 c -1.0662,-0.7463 -3.2518,-1.386 -5.4907,-1.386 -7.1964,0 -12.1007,4.3178 -12.1007,13.6999 v 0.7463 h -3.5716 v 3.4119 h 3.5716 v 21.8559 h 4.3712 v -21.8559 h 9.4887 v 21.8559 h 4.3712 z"
             style="font-weight:normal;font-size:16.3915px;line-height:0.9;font-family:Vegur;-inkscape-font-specification:Vegur;text-align:center;letter-spacing:-0.439064px;text-anchor:middle;fill:#ffffff;stroke:none;stroke-width:0.907529;stroke-linecap:round;stroke-linejoin:round;paint-order:markers fill stroke"
             id="path1850" />
          <path
             d="m 2998.1583,1099.7401 c -1.5993,0.7993 -3.5716,1.2794 -5.3841,1.2794 -5.384,0 -8.5291,-3.4118 -8.5291,-9.7555 0,-6.5566 3.7315,-9.6484 8.4758,-9.6484 2.2389,0 4.158,0.5331 5.7039,1.3858 l 0.3732,-3.8382 c -1.4393,-0.6927 -3.6783,-1.1727 -6.237,-1.1727 -6.8766,0 -13.1136,4.6912 -13.1136,13.5936 0,8.849 5.4374,12.9535 12.3673,12.9535 2.6121,0 4.9576,-0.533 6.7167,-1.226 z"
             style="font-weight:normal;font-size:16.3915px;line-height:0.9;font-family:Vegur;-inkscape-font-specification:Vegur;text-align:center;letter-spacing:-0.439064px;text-anchor:middle;fill:#ffffff;stroke:none;stroke-width:0.907529;stroke-linecap:round;stroke-linejoin:round;paint-order:markers fill stroke"
             id="path1851" />
          <path
             d="m 3020.0256,1099.1537 c -1.8125,1.1194 -4.2113,1.8658 -6.4502,1.8658 -5.1175,0 -7.7828,-2.5055 -8.0494,-8.2627 h 15.9389 c 0.16,-0.8531 0.2133,-1.3861 0.2133,-2.1858 0,-6.9299 -2.7186,-12.5805 -9.3287,-12.5805 -6.8767,0 -11.4078,5.4375 -11.4078,13.9666 0,8.316 4.5311,12.5805 11.5677,12.5805 2.9852,0 5.8105,-0.693 7.7295,-1.7591 z m -14.393,-9.9687 c 0.3732,-4.4776 2.7187,-7.463 6.237,-7.463 3.8914,0 5.384,3.3051 5.384,7.463 z"
             style="font-weight:normal;font-size:16.3915px;line-height:0.9;font-family:Vegur;-inkscape-font-specification:Vegur;text-align:center;letter-spacing:-0.439064px;text-anchor:middle;fill:#ffffff;stroke:none;stroke-width:0.907529;stroke-linecap:round;stroke-linejoin:round;paint-order:markers fill stroke"
             id="path1852" />
        </g>
        <g
           id="g1853"
           transform="matrix(0.34429708,0,0,0.34429708,3381.5848,4331.5455)"
           style="fill:#ffffff;stroke:none">
          <path
             id="path1853"
             style="fill:#ffffff;fill-opacity:1;stroke:none;stroke-width:3.51184;stroke-linecap:round;stroke-linejoin:round;stroke-dasharray:none;stroke-opacity:1;paint-order:markers fill stroke"
             d="m 5557.6159,1937.4604 a 33.741474,33.741474 0 0 0 -33.7416,33.7415 33.741474,33.741474 0 0 0 33.7416,33.7416 33.741474,33.741474 0 0 0 33.7415,-33.7416 33.741474,33.741474 0 0 0 -33.7415,-33.7415 z m -19.1872,25.5323 c 3.7119,0 5.3536,2.118 5.3536,4.545 0,2.1891 -1.3326,4.0686 -3.5931,6.1863 l -2.855,2.6889 h 6.2579 v 2.6648 h -10.0178 v -2.4505 l 4.212,-4.2831 c 1.7132,-1.7608 2.6172,-3.1172 2.6172,-4.3783 0,-1.5704 -0.8802,-2.3083 -2.5696,-2.3083 -1.0232,0 -2.213,0.4525 -3.2837,1.4281 l -0.1427,-2.8316 c 1.2135,-0.8566 2.4984,-1.2613 4.0212,-1.2613 z m 12.6644,0 c 3.0695,0 5.5439,2.0703 5.5439,8.2092 0,6.139 -2.4744,8.2092 -5.5439,8.2092 -3.0695,0 -5.5439,-2.0702 -5.5439,-8.2092 0,-6.1389 2.4744,-8.2092 5.5439,-8.2092 z m 11.9985,0 c 3.7119,0 5.3536,2.118 5.3536,4.545 0,2.1891 -1.3326,4.0686 -3.5931,6.1863 l -2.8551,2.6889 h 6.258 v 2.6648 h -10.0178 v -2.4505 l 4.212,-4.2831 c 1.7132,-1.7608 2.6172,-3.1172 2.6172,-4.3783 0,-1.5704 -0.8802,-2.3083 -2.5696,-2.3083 -1.0232,0 -2.213,0.4525 -3.2837,1.4281 l -0.1427,-2.8316 c 1.2135,-0.8566 2.4984,-1.2613 4.0212,-1.2613 z m 12.2123,0.333 h 4.2355 v 9.494 h 2.1175 v 2.6653 h -2.1175 v 3.5691 h -3.141 v -3.5691 h -6.2814 v -2.4745 z m -24.2108,2.3318 c -1.5466,0 -2.1651,2.0467 -2.1651,5.5444 0,3.4978 0.6185,5.5439 2.1651,5.5439 1.5467,0 2.1651,-2.0461 2.1651,-5.5439 0,-3.4977 -0.6184,-5.5444 -2.1651,-5.5444 z m 25.4956,0.4286 -3.2361,6.7336 h 3.0934 v -3.188 c 0,-1.3563 0.024,-2.3558 0.1427,-3.5456 z" />
        </g>
        <path
           style="font-weight:bold;font-size:85.7176px;line-height:1.3;font-family:Vegur;-inkscape-font-specification:Vegur;letter-spacing:-0.321442px;white-space:pre;fill:#ffffff;stroke:none;stroke-width:0.617675;stroke-linecap:round;stroke-linejoin:round;paint-order:markers fill stroke"
           d="m 5175.1807,5013.5664 1.7364,5.7694 h 4.0889 l -6.5535,-19.2684 h -4.425 l -6.5534,19.2684 h 3.9769 l 1.7363,-5.7694 z m -0.9522,-3.1366 h -4.089 l 2.0445,-6.8056 z m 7.7647,8.4579 c 1.0082,0.4761 2.3525,0.7281 3.5288,0.7281 3.1367,0 5.6573,-1.6804 5.6573,-4.425 0,-2.0164 -1.0083,-3.3047 -3.6408,-3.9209 -0.9243,-0.224 -1.5124,-0.6721 -1.5124,-1.4283 0,-0.8402 0.8122,-1.3163 1.9324,-1.3163 1.0083,0 1.9045,0.2241 2.7446,0.6722 l 0.2241,-3.0247 c -0.7842,-0.3361 -1.8484,-0.5882 -3.3887,-0.5882 -2.7447,0 -5.2653,1.5124 -5.2653,4.453 0,2.1005 1.0363,3.3328 3.4168,3.9489 1.1483,0.3081 1.7644,0.7002 1.7644,1.4284 0,0.7561 -0.7281,1.2323 -1.9324,1.2323 -1.0082,0 -2.0725,-0.1681 -3.2488,-0.7002 z m 13.282,-18.3722 c -1.1762,0 -2.1285,0.8682 -2.1285,1.9605 0,1.0922 0.9523,1.9604 2.1285,1.9604 1.1763,0 2.1285,-0.8682 2.1285,-1.9604 0,-1.0923 -0.9522,-1.9605 -2.1285,-1.9605 z m -1.8484,18.8203 h 3.6968 v -13.4991 h -3.6968 z m 7.2326,-9.5502 c 1.0922,-0.7002 2.6606,-1.0362 3.7528,-1.0362 1.7644,0 2.5206,0.8401 2.5206,2.1565 v 0.308 c -0.3361,-0.028 -0.7562,-0.056 -1.2883,-0.056 -3.5288,0 -6.1334,1.5964 -6.1334,4.481 0,2.4926 1.6244,3.9769 4.061,3.9769 1.7924,0 2.8846,-0.5321 3.6688,-1.9884 l 0.2801,1.7084 h 3.1086 v -8.71 c 0,-3.0807 -1.6243,-5.0692 -5.6572,-5.0692 -1.5684,0 -3.3888,0.3921 -4.537,1.0923 z m 6.2734,4.453 c 0,1.5683 -0.9242,2.7166 -2.0164,2.7166 -1.0083,0 -1.6804,-0.6441 -1.6804,-1.5683 0,-1.2043 1.0362,-1.9605 2.6046,-1.9605 0.364,0 0.7561,0.028 1.0922,0.056 z m 26.256,1.1203 c -1.6524,0.8401 -3.1087,1.2322 -4.8451,1.2322 -3.7248,0 -6.2174,-2.6326 -6.2174,-7.1136 0,-4.369 2.9126,-6.6655 6.3014,-6.6655 2.0164,0 3.6688,0.4761 4.9571,1.1763 l 0.3641,-3.1927 c -1.1483,-0.6722 -2.8847,-1.1203 -5.3212,-1.1203 -5.4892,0 -10.2783,3.5008 -10.2783,10.1103 0,6.5255 3.9769,9.9422 9.6342,9.9422 2.0444,0 4.1169,-0.364 5.6852,-1.2043 z m 21.9496,-9.5222 h -3.1087 v 13.4991 h 3.6968 v -6.9456 c 0,-2.1285 0.8962,-3.5288 2.4366,-3.5288 1.5683,0 2.3525,1.2042 2.3525,2.9406 v 7.5338 h 3.6968 v -9.0181 c 0,-2.7446 -1.7924,-4.7611 -4.8171,-4.7611 -1.8204,0 -3.3607,0.8963 -3.9488,2.8287 z m 12.6658,0.112 h -1.8764 v 2.9127 h 1.8764 v 10.4744 h 3.6968 v -10.4744 h 3.6689 v -2.9127 h -3.6689 v -1.0922 c 0,-2.0165 1.1483,-3.3048 2.9687,-3.3048 0.7842,0 1.4843,0.1121 2.0164,0.3361 l 0.2521,-3.0527 c -0.5601,-0.224 -1.4563,-0.3641 -2.2965,-0.3641 -3.7248,0 -6.6375,2.2125 -6.6375,6.6936 z m 11.6856,9.4102 c -1.1762,0 -2.1284,0.9522 -2.1284,2.1284 0,1.1763 0.9522,2.1285 2.1284,2.1285 1.1763,0 2.1285,-0.9522 2.1285,-2.1285 0,-1.1762 -0.9522,-2.1284 -2.1285,-2.1284 z"
           id="path1854"
           aria-label="Asia Conf." />
        <g
           id="g1857"
           transform="matrix(0.16864017,0,0,0.16864017,4109.791,4677.8542)"
           style="fill:#ffffff;stroke:none">
          <g
             id="g1856"
             style="fill:#ffffff;stroke:none">
            <path
               id="path1855"
               style="fill:#ffffff;fill-opacity:1;stroke:none;stroke-width:0.139492;stroke-linecap:round;stroke-linejoin:round;stroke-dasharray:none;paint-order:markers fill stroke"
               d="m 6715.3041,1935.2834 h -0.01 c -1.2202,-0.051 -2.609,1.2423 -3.8249,2.9327 -0.4547,-0.9997 -1.2517,-1.6854 -2.4808,-1.8382 -1.1966,-0.1488 -2.3406,1.1024 -3.276,2.8263 -3.5143,-0.7591 -6.996,-0.3077 -7.4623,2.5028 -2.6826,-0.1197 -4.9095,0.703 -5.1417,3.0665 v 0.2243 c -3.0643,-0.062 -5.6724,0.9128 -5.6894,3.5332 0,0.4144 0.1628,0.8024 0.4488,1.164 -2.1253,0.3407 -3.6876,1.3848 -3.7006,3.4119 0,0.3619 0.1209,0.7042 0.3423,1.026 -0.9294,-0.3722 -1.9044,-0.3325 -2.8663,0.2971 -0.8978,0.5878 -1.0444,1.9954 -0.7837,3.6511 -2.0119,0.3765 -3.4685,1.4167 -3.4815,3.373 -0.01,0.8095 0.616,1.5216 1.5738,2.1226 -2.2507,1.0574 -3.7387,2.6917 -2.8853,4.6981 0.2623,0.6165 0.9324,0.9761 1.8224,1.1482 h 72.4233 c -0.01,-0.01 -0.01,-0.01 -0.01,-0.017 0.86,-0.1765 1.507,-0.532 1.7633,-1.1345 0.8535,-2.0064 -0.6343,-3.6408 -2.8852,-4.6982 0.9579,-0.6011 1.5838,-1.3131 1.5738,-2.1226 -0.013,-1.9563 -1.4684,-2.9975 -3.4805,-3.374 0.2609,-1.6555 0.1132,-3.0623 -0.7847,-3.6501 -0.962,-0.6296 -1.9369,-0.6693 -2.8663,-0.297 0.2214,-0.3219 0.3423,-0.6641 0.3423,-1.026 -0.013,-2.027 -1.5754,-3.0712 -3.7006,-3.412 0.2859,-0.3616 0.4488,-0.7496 0.4488,-1.164 -0.017,-2.6203 -2.6242,-3.5951 -5.6884,-3.5331 0.01,-0.075 0.01,-0.1494 0,-0.2244 -0.2326,-2.3676 -2.4676,-3.1887 -5.1564,-3.0654 -0.026,-1.3227 -0.3551,-2.376 -1.1577,-2.7946 -1.1342,-0.5916 -2.2108,-0.4531 -3.177,0.1601 -0.017,-0.118 -0.044,-0.2339 -0.087,-0.3466 -1.0433,-2.7377 -4.3983,-2.4193 -7.5728,-0.8764 -0.2261,-1.1841 -0.8949,-2.0976 -2.1658,-2.4955 -0.1336,-0.043 -0.2701,-0.062 -0.4087,-0.072 z m 2.921,6.2267 c 0.6248,0.015 1.1118,0.2875 1.4579,0.8248 0.869,2.4231 -5.7135,8.3983 -7.6255,5.2133 -0.9218,-1.5358 2.9457,-4.9841 4.4611,-5.6062 0.6513,-0.2987 1.2206,-0.4433 1.7065,-0.4319 z m -12.5797,5.2154 c 0.6248,0.015 1.1118,0.2874 1.4579,0.8248 0.8688,2.4229 -5.7137,8.3981 -7.6255,5.2132 -0.922,-1.5359 2.9455,-4.9842 4.4611,-5.6061 0.6513,-0.2987 1.2206,-0.4434 1.7065,-0.4319 z m 20.3359,1.4747 c 0.7298,0 1.2693,0.3108 1.6128,0.9323 0.7032,2.4761 -6.2681,7.9925 -7.9606,4.6855 -0.816,-1.5945 3.2759,-4.7741 4.8299,-5.2923 0.5744,-0.2177 1.0803,-0.3267 1.5179,-0.3255 z" />
            <path
               id="path1856"
               style="fill:#ffffff;fill-opacity:1;stroke:none;stroke-width:0.139492;stroke-linecap:round;stroke-linejoin:round;stroke-dasharray:none;stroke-opacity:1;paint-order:markers fill stroke"
               d="m 6667.1569,1972.867 c -0.025,0.5441 -0.042,1.0882 -0.042,1.6328 0.019,17.4145 10.4951,33.2145 26.8285,40.6728 h 40.55 c 16.3334,-7.4583 26.8103,-23.2583 26.8285,-40.6728 -0.03,-0.545 -0.071,-1.0891 -0.1218,-1.6328 z m 26.4921,45.5037 v 6.5511 h 41.1377 v -6.5511 z" />
          </g>
        </g>
      </g>
      <g
         id="g2063"
         transform="matrix(0.9604,0,0,0.9604,-5654.1787,-4636.8097)">
        <g
           id="g1867"
           transform="matrix(0.50090686,0,0,0.50090686,4028.7283,4441.1148)"
           style="fill:#ffffff;stroke:none">
          <path
             d="m 2804.9771,1098.034 v -30.705 h -7.0366 v 36.6756 h 22.549 v -5.9706 z"
             id="path1858"
             style="font-weight:bold;font-size:16.3915px;line-height:0.9;font-family:Vegur;-inkscape-font-specification:'Vegur Bold';text-align:center;letter-spacing:-0.439064px;text-anchor:middle;fill:#ffffff;stroke:none;stroke-width:0.907529;stroke-linecap:round;stroke-linejoin:round;paint-order:markers fill stroke" />
          <path
             d="m 2826.3647,1068.1821 c -2.2389,0 -4.0514,1.6524 -4.0514,3.7315 0,2.079 1.8125,3.7314 4.0514,3.7314 2.2389,0 4.0513,-1.6524 4.0513,-3.7314 0,-2.0791 -1.8124,-3.7315 -4.0513,-3.7315 z m -3.5183,35.8225 h 7.0366 v -25.6941 h -7.0366 z"
             id="path1859"
             style="font-weight:bold;font-size:16.3915px;line-height:0.9;font-family:Vegur;-inkscape-font-specification:'Vegur Bold';text-align:center;letter-spacing:-0.439064px;text-anchor:middle;fill:#ffffff;stroke:none;stroke-width:0.907529;stroke-linecap:round;stroke-linejoin:round;paint-order:markers fill stroke" />
          <path
             d="m 2841.462,1064.8236 h -7.0365 v 39.181 h 5.9171 l 0.533,-4.3712 c 1.1195,3.0918 4.158,4.9042 7.7296,4.9042 6.77,0 11.621,-5.1709 11.621,-13.7532 0,-7.3564 -4.0514,-13.0069 -10.6615,-13.0069 -3.5182,0 -6.3968,1.3857 -8.1027,4.4245 z m 0,25.4277 c 0,-4.1581 2.5055,-6.6102 5.3841,-6.6102 4.3178,0 6.1303,3.4118 6.1303,7.6763 0,5.1709 -2.4521,7.8363 -5.8105,7.8363 -2.8253,0 -5.7039,-2.5054 -5.7039,-6.3969 z"
             id="path1860"
             style="font-weight:bold;font-size:16.3915px;line-height:0.9;font-family:Vegur;-inkscape-font-specification:'Vegur Bold';text-align:center;letter-spacing:-0.439064px;text-anchor:middle;fill:#ffffff;stroke:none;stroke-width:0.907529;stroke-linecap:round;stroke-linejoin:round;paint-order:markers fill stroke" />
          <path
             d="m 2869.2998,1078.3105 h -5.9171 v 25.6941 h 7.0366 v -12.5805 c 0,-4.3179 1.6525,-7.463 4.9576,-7.463 1.2793,0 2.0789,0.1073 2.9319,0.4797 l 0.2666,-6.237 c -0.5864,-0.2667 -1.6525,-0.4263 -2.5587,-0.4263 -2.4522,0 -5.2774,1.919 -6.1837,4.8508 z"
             id="path1861"
             style="font-weight:bold;font-size:16.3915px;line-height:0.9;font-family:Vegur;-inkscape-font-specification:'Vegur Bold';text-align:center;letter-spacing:-0.439064px;text-anchor:middle;fill:#ffffff;stroke:none;stroke-width:0.907529;stroke-linecap:round;stroke-linejoin:round;paint-order:markers fill stroke" />
          <path
             d="m 2899.9628,1097.341 c -1.9191,1.013 -4.2112,1.5994 -7.0365,1.5994 -3.8382,0 -6.237,-1.8124 -6.6102,-5.2242 h 15.6191 c 0.16,-0.8528 0.2667,-2.0788 0.2667,-2.9852 0,-7.0366 -3.1985,-12.9535 -10.5549,-12.9535 -6.8766,0 -12.0474,5.4372 -12.0474,14.1796 0,8.4227 4.9042,12.5805 11.9408,12.5805 3.9447,0 6.8766,-0.7463 8.9023,-1.8657 z m -13.5933,-8.6891 c 0.4264,-3.5181 2.3988,-5.4372 4.9575,-5.4372 3.2518,0 4.4779,2.4521 4.4779,5.4372 z"
             id="path1862"
             style="font-weight:bold;font-size:16.3915px;line-height:0.9;font-family:Vegur;-inkscape-font-specification:'Vegur Bold';text-align:center;letter-spacing:-0.439064px;text-anchor:middle;fill:#ffffff;stroke:none;stroke-width:0.907529;stroke-linecap:round;stroke-linejoin:round;paint-order:markers fill stroke" />
          <path
             d="m 2920.9239,1066.796 c -10.0218,0 -16.9517,7.303 -16.9517,18.8708 0,11.5678 6.9299,18.8708 16.9517,18.8708 10.0218,0 16.9517,-7.303 16.9517,-18.8708 0,-11.5678 -6.9299,-18.8708 -16.9517,-18.8708 z m 0,3.8382 c 6.4502,0 12.0475,4.9042 12.0475,15.0326 0,10.1284 -5.5973,15.0327 -12.0475,15.0327 -6.4502,0 -12.0474,-4.9043 -12.0474,-15.0327 0,-10.1284 5.5972,-15.0326 12.0474,-15.0326 z"
             style="font-weight:normal;font-size:16.3915px;line-height:0.9;font-family:Vegur;-inkscape-font-specification:Vegur;text-align:center;letter-spacing:-0.439064px;text-anchor:middle;fill:#ffffff;stroke:none;stroke-width:0.907529;stroke-linecap:round;stroke-linejoin:round;paint-order:markers fill stroke"
             id="path1863" />
          <path
             d="m 2943.3243,1078.7368 h -3.5716 v 3.4119 h 3.5716 v 21.8559 h 4.3712 v -21.8559 h 6.4502 v -3.4119 h -6.4502 v -2.9851 c 0,-5.4372 2.8786,-7.8363 6.0237,-7.8363 1.4926,0 2.3988,0.2146 3.2517,0.5333 l 0.2667,-3.6251 c -0.8529,-0.3187 -2.1323,-0.533 -3.5716,-0.533 -6.3435,0 -10.3416,4.2111 -10.3416,12.0475 z"
             style="font-weight:normal;font-size:16.3915px;line-height:0.9;font-family:Vegur;-inkscape-font-specification:Vegur;text-align:center;letter-spacing:-0.439064px;text-anchor:middle;fill:#ffffff;stroke:none;stroke-width:0.907529;stroke-linecap:round;stroke-linejoin:round;paint-order:markers fill stroke"
             id="path1864" />
          <path
             d="m 2976.5461,1078.7368 h -13.8599 v -1.3327 c 0,-5.5439 2.3455,-9.4887 7.3031,-9.4887 2.1323,0 3.998,0.48 5.4906,1.4927 l 0.4265,-3.7315 c -1.0662,-0.7463 -3.2518,-1.386 -5.4907,-1.386 -7.1964,0 -12.1007,4.3178 -12.1007,13.6999 v 0.7463 h -3.5716 v 3.4119 h 3.5716 v 21.8559 h 4.3712 v -21.8559 h 9.4887 v 21.8559 h 4.3712 z"
             style="font-weight:normal;font-size:16.3915px;line-height:0.9;font-family:Vegur;-inkscape-font-specification:Vegur;text-align:center;letter-spacing:-0.439064px;text-anchor:middle;fill:#ffffff;stroke:none;stroke-width:0.907529;stroke-linecap:round;stroke-linejoin:round;paint-order:markers fill stroke"
             id="path1865" />
          <path
             d="m 2998.1583,1099.7401 c -1.5993,0.7993 -3.5716,1.2794 -5.3841,1.2794 -5.384,0 -8.5291,-3.4118 -8.5291,-9.7555 0,-6.5566 3.7315,-9.6484 8.4758,-9.6484 2.2389,0 4.158,0.5331 5.7039,1.3858 l 0.3732,-3.8382 c -1.4393,-0.6927 -3.6783,-1.1727 -6.237,-1.1727 -6.8766,0 -13.1136,4.6912 -13.1136,13.5936 0,8.849 5.4374,12.9535 12.3673,12.9535 2.6121,0 4.9576,-0.533 6.7167,-1.226 z"
             style="font-weight:normal;font-size:16.3915px;line-height:0.9;font-family:Vegur;-inkscape-font-specification:Vegur;text-align:center;letter-spacing:-0.439064px;text-anchor:middle;fill:#ffffff;stroke:none;stroke-width:0.907529;stroke-linecap:round;stroke-linejoin:round;paint-order:markers fill stroke"
             id="path1866" />
          <path
             d="m 3020.0256,1099.1537 c -1.8125,1.1194 -4.2113,1.8658 -6.4502,1.8658 -5.1175,0 -7.7828,-2.5055 -8.0494,-8.2627 h 15.9389 c 0.16,-0.8531 0.2133,-1.3861 0.2133,-2.1858 0,-6.9299 -2.7186,-12.5805 -9.3287,-12.5805 -6.8767,0 -11.4078,5.4375 -11.4078,13.9666 0,8.316 4.5311,12.5805 11.5677,12.5805 2.9852,0 5.8105,-0.693 7.7295,-1.7591 z m -14.393,-9.9687 c 0.3732,-4.4776 2.7187,-7.463 6.237,-7.463 3.8914,0 5.384,3.3051 5.384,7.463 z"
             style="font-weight:normal;font-size:16.3915px;line-height:0.9;font-family:Vegur;-inkscape-font-specification:Vegur;text-align:center;letter-spacing:-0.439064px;text-anchor:middle;fill:#ffffff;stroke:none;stroke-width:0.907529;stroke-linecap:round;stroke-linejoin:round;paint-order:markers fill stroke"
             id="path1867" />
        </g>
        <g
           id="g1868"
           transform="matrix(0.34429708,0,0,0.34429708,3635.1438,4331.5455)"
           style="fill:#ffffff;stroke:none">
          <path
             id="path1868"
             style="fill:#ffffff;fill-opacity:1;stroke:none;stroke-width:3.51184;stroke-linecap:round;stroke-linejoin:round;stroke-dasharray:none;stroke-opacity:1;paint-order:markers fill stroke"
             d="m 5557.6159,1937.4604 a 33.741474,33.741474 0 0 0 -33.7416,33.7415 33.741474,33.741474 0 0 0 33.7416,33.7416 33.741474,33.741474 0 0 0 33.7415,-33.7416 33.741474,33.741474 0 0 0 -33.7415,-33.7415 z m -19.1872,25.5323 c 3.7119,0 5.3536,2.118 5.3536,4.545 0,2.1891 -1.3326,4.0686 -3.5931,6.1863 l -2.855,2.6889 h 6.2579 v 2.6648 h -10.0178 v -2.4505 l 4.212,-4.2831 c 1.7132,-1.7608 2.6172,-3.1172 2.6172,-4.3783 0,-1.5704 -0.8802,-2.3083 -2.5696,-2.3083 -1.0232,0 -2.213,0.4525 -3.2837,1.4281 l -0.1427,-2.8316 c 1.2135,-0.8566 2.4984,-1.2613 4.0212,-1.2613 z m 12.6644,0 c 3.0695,0 5.5439,2.0703 5.5439,8.2092 0,6.139 -2.4744,8.2092 -5.5439,8.2092 -3.0695,0 -5.5439,-2.0702 -5.5439,-8.2092 0,-6.1389 2.4744,-8.2092 5.5439,-8.2092 z m 11.9985,0 c 3.7119,0 5.3536,2.118 5.3536,4.545 0,2.1891 -1.3326,4.0686 -3.5931,6.1863 l -2.8551,2.6889 h 6.258 v 2.6648 h -10.0178 v -2.4505 l 4.212,-4.2831 c 1.7132,-1.7608 2.6172,-3.1172 2.6172,-4.3783 0,-1.5704 -0.8802,-2.3083 -2.5696,-2.3083 -1.0232,0 -2.213,0.4525 -3.2837,1.4281 l -0.1427,-2.8316 c 1.2135,-0.8566 2.4984,-1.2613 4.0212,-1.2613 z m 12.2123,0.333 h 4.2355 v 9.494 h 2.1175 v 2.6653 h -2.1175 v 3.5691 h -3.141 v -3.5691 h -6.2814 v -2.4745 z m -24.2108,2.3318 c -1.5466,0 -2.1651,2.0467 -2.1651,5.5444 0,3.4978 0.6185,5.5439 2.1651,5.5439 1.5467,0 2.1651,-2.0461 2.1651,-5.5439 0,-3.4977 -0.6184,-5.5444 -2.1651,-5.5444 z m 25.4956,0.4286 -3.2361,6.7336 h 3.0934 v -3.188 c 0,-1.3563 0.024,-2.3558 0.1427,-3.5456 z" />
        </g>
        <path
           style="font-weight:bold;font-size:85.7176px;line-height:1.3;font-family:Vegur;-inkscape-font-specification:Vegur;letter-spacing:-0.321442px;white-space:pre;fill:#ffffff;stroke:none;stroke-width:0.617675;stroke-linecap:round;stroke-linejoin:round;paint-order:markers fill stroke"
           d="m 5428.7397,5013.5664 1.7364,5.7694 h 4.0889 l -6.5535,-19.2684 h -4.425 l -6.5534,19.2684 h 3.9769 l 1.7363,-5.7694 z m -0.9522,-3.1366 h -4.089 l 2.0445,-6.8056 z m 7.7647,8.4579 c 1.0082,0.4761 2.3525,0.7281 3.5288,0.7281 3.1367,0 5.6573,-1.6804 5.6573,-4.425 0,-2.0164 -1.0083,-3.3047 -3.6408,-3.9209 -0.9243,-0.224 -1.5124,-0.6721 -1.5124,-1.4283 0,-0.8402 0.8122,-1.3163 1.9324,-1.3163 1.0083,0 1.9045,0.2241 2.7446,0.6722 l 0.2241,-3.0247 c -0.7842,-0.3361 -1.8484,-0.5882 -3.3887,-0.5882 -2.7447,0 -5.2653,1.5124 -5.2653,4.453 0,2.1005 1.0363,3.3328 3.4168,3.9489 1.1483,0.3081 1.7644,0.7002 1.7644,1.4284 0,0.7561 -0.7281,1.2323 -1.9324,1.2323 -1.0082,0 -2.0725,-0.1681 -3.2488,-0.7002 z m 13.282,-18.3722 c -1.1762,0 -2.1285,0.8682 -2.1285,1.9605 0,1.0922 0.9523,1.9604 2.1285,1.9604 1.1763,0 2.1285,-0.8682 2.1285,-1.9604 0,-1.0923 -0.9522,-1.9605 -2.1285,-1.9605 z m -1.8484,18.8203 h 3.6968 v -13.4991 h -3.6968 z m 7.2326,-9.5502 c 1.0922,-0.7002 2.6606,-1.0362 3.7528,-1.0362 1.7644,0 2.5206,0.8401 2.5206,2.1565 v 0.308 c -0.3361,-0.028 -0.7562,-0.056 -1.2883,-0.056 -3.5288,0 -6.1334,1.5964 -6.1334,4.481 0,2.4926 1.6244,3.9769 4.061,3.9769 1.7924,0 2.8846,-0.5321 3.6688,-1.9884 l 0.2801,1.7084 h 3.1086 v -8.71 c 0,-3.0807 -1.6243,-5.0692 -5.6572,-5.0692 -1.5684,0 -3.3888,0.3921 -4.537,1.0923 z m 6.2734,4.453 c 0,1.5683 -0.9242,2.7166 -2.0164,2.7166 -1.0083,0 -1.6804,-0.6441 -1.6804,-1.5683 0,-1.2043 1.0362,-1.9605 2.6046,-1.9605 0.364,0 0.7561,0.028 1.0922,0.056 z m 26.256,1.1203 c -1.6524,0.8401 -3.1087,1.2322 -4.8451,1.2322 -3.7248,0 -6.2174,-2.6326 -6.2174,-7.1136 0,-4.369 2.9126,-6.6655 6.3014,-6.6655 2.0164,0 3.6688,0.4761 4.9571,1.1763 l 0.3641,-3.1927 c -1.1483,-0.6722 -2.8847,-1.1203 -5.3212,-1.1203 -5.4892,0 -10.2783,3.5008 -10.2783,10.1103 0,6.5255 3.9769,9.9422 9.6342,9.9422 2.0444,0 4.1169,-0.364 5.6852,-1.2043 z m 21.9496,-9.5222 h -3.1087 v 13.4991 h 3.6968 v -6.9456 c 0,-2.1285 0.8962,-3.5288 2.4366,-3.5288 1.5683,0 2.3525,1.2042 2.3525,2.9406 v 7.5338 h 3.6968 v -9.0181 c 0,-2.7446 -1.7924,-4.7611 -4.8171,-4.7611 -1.8204,0 -3.3607,0.8963 -3.9488,2.8287 z m 12.6658,0.112 h -1.8764 v 2.9127 h 1.8764 v 10.4744 h 3.6968 v -10.4744 h 3.6689 v -2.9127 h -3.6689 v -1.0922 c 0,-2.0165 1.1483,-3.3048 2.9687,-3.3048 0.7842,0 1.4843,0.1121 2.0164,0.3361 l 0.2521,-3.0527 c -0.5601,-0.224 -1.4563,-0.3641 -2.2965,-0.3641 -3.7248,0 -6.6375,2.2125 -6.6375,6.6936 z m 11.6856,9.4102 c -1.1762,0 -2.1284,0.9522 -2.1284,2.1284 0,1.1763 0.9522,2.1285 2.1284,2.1285 1.1763,0 2.1285,-0.9522 2.1285,-2.1285 0,-1.1762 -0.9522,-2.1284 -2.1285,-2.1284 z"
           id="path1869"
           aria-label="Asia Conf." />
        <g
           id="g1872"
           transform="matrix(0.16864017,0,0,0.16864017,4363.35,4677.8542)"
           style="fill:#ffffff;stroke:none">
          <g
             id="g1871"
             style="fill:#ffffff;stroke:none">
            <path
               id="path1870"
               style="fill:#ffffff;fill-opacity:1;stroke:none;stroke-width:0.139492;stroke-linecap:round;stroke-linejoin:round;stroke-dasharray:none;paint-order:markers fill stroke"
               d="m 6715.3041,1935.2834 h -0.01 c -1.2202,-0.051 -2.609,1.2423 -3.8249,2.9327 -0.4547,-0.9997 -1.2517,-1.6854 -2.4808,-1.8382 -1.1966,-0.1488 -2.3406,1.1024 -3.276,2.8263 -3.5143,-0.7591 -6.996,-0.3077 -7.4623,2.5028 -2.6826,-0.1197 -4.9095,0.703 -5.1417,3.0665 v 0.2243 c -3.0643,-0.062 -5.6724,0.9128 -5.6894,3.5332 0,0.4144 0.1628,0.8024 0.4488,1.164 -2.1253,0.3407 -3.6876,1.3848 -3.7006,3.4119 0,0.3619 0.1209,0.7042 0.3423,1.026 -0.9294,-0.3722 -1.9044,-0.3325 -2.8663,0.2971 -0.8978,0.5878 -1.0444,1.9954 -0.7837,3.6511 -2.0119,0.3765 -3.4685,1.4167 -3.4815,3.373 -0.01,0.8095 0.616,1.5216 1.5738,2.1226 -2.2507,1.0574 -3.7387,2.6917 -2.8853,4.6981 0.2623,0.6165 0.9324,0.9761 1.8224,1.1482 h 72.4233 c -0.01,-0.01 -0.01,-0.01 -0.01,-0.017 0.86,-0.1765 1.507,-0.532 1.7633,-1.1345 0.8535,-2.0064 -0.6343,-3.6408 -2.8852,-4.6982 0.9579,-0.6011 1.5838,-1.3131 1.5738,-2.1226 -0.013,-1.9563 -1.4684,-2.9975 -3.4805,-3.374 0.2609,-1.6555 0.1132,-3.0623 -0.7847,-3.6501 -0.962,-0.6296 -1.9369,-0.6693 -2.8663,-0.297 0.2214,-0.3219 0.3423,-0.6641 0.3423,-1.026 -0.013,-2.027 -1.5754,-3.0712 -3.7006,-3.412 0.2859,-0.3616 0.4488,-0.7496 0.4488,-1.164 -0.017,-2.6203 -2.6242,-3.5951 -5.6884,-3.5331 0.01,-0.075 0.01,-0.1494 0,-0.2244 -0.2326,-2.3676 -2.4676,-3.1887 -5.1564,-3.0654 -0.026,-1.3227 -0.3551,-2.376 -1.1577,-2.7946 -1.1342,-0.5916 -2.2108,-0.4531 -3.177,0.1601 -0.017,-0.118 -0.044,-0.2339 -0.087,-0.3466 -1.0433,-2.7377 -4.3983,-2.4193 -7.5728,-0.8764 -0.2261,-1.1841 -0.8949,-2.0976 -2.1658,-2.4955 -0.1336,-0.043 -0.2701,-0.062 -0.4087,-0.072 z m 2.921,6.2267 c 0.6248,0.015 1.1118,0.2875 1.4579,0.8248 0.869,2.4231 -5.7135,8.3983 -7.6255,5.2133 -0.9218,-1.5358 2.9457,-4.9841 4.4611,-5.6062 0.6513,-0.2987 1.2206,-0.4433 1.7065,-0.4319 z m -12.5797,5.2154 c 0.6248,0.015 1.1118,0.2874 1.4579,0.8248 0.8688,2.4229 -5.7137,8.3981 -7.6255,5.2132 -0.922,-1.5359 2.9455,-4.9842 4.4611,-5.6061 0.6513,-0.2987 1.2206,-0.4434 1.7065,-0.4319 z m 20.3359,1.4747 c 0.7298,0 1.2693,0.3108 1.6128,0.9323 0.7032,2.4761 -6.2681,7.9925 -7.9606,4.6855 -0.816,-1.5945 3.2759,-4.7741 4.8299,-5.2923 0.5744,-0.2177 1.0803,-0.3267 1.5179,-0.3255 z" />
            <path
               id="path1871"
               style="fill:#ffffff;fill-opacity:1;stroke:none;stroke-width:0.139492;stroke-linecap:round;stroke-linejoin:round;stroke-dasharray:none;stroke-opacity:1;paint-order:markers fill stroke"
               d="m 6667.1569,1972.867 c -0.025,0.5441 -0.042,1.0882 -0.042,1.6328 0.019,17.4145 10.4951,33.2145 26.8285,40.6728 h 40.55 c 16.3334,-7.4583 26.8103,-23.2583 26.8285,-40.6728 -0.03,-0.545 -0.071,-1.0891 -0.1218,-1.6328 z m 26.4921,45.5037 v 6.5511 h 41.1377 v -6.5511 z" />
          </g>
        </g>
      </g>
    </g>
  </g>
</svg>
